<svg id="Layer_1" xmlns="http://www.w3.org/2000/svg" viewBox="0 0 120 120"><style>.st0{fill:#777}.st1{fill:#c6c6c6}</style><path class="st0" d="M51.9 105.6c-22-3.8-38.6-22.8-38.6-45.6 0-25.6 20.9-46.3 46.7-46.3 1.1 0 2.1 0 3.2.1V.7C62.1.6 61.1.6 60 .6 26.9.6 0 27.2 0 60c0 30.1 22.6 54.9 51.9 58.8v-13.2z"/><path class="st1" d="M88.4 83.4l.2-20.1h-51V90s7.9 5.4 14.2 6.7l.2-20.3 22.3-.2.2 19.4s12.1-.8 20.9-17c-.1 0-3.7 4.2-7 4.8z"/><path class="st1" d="M72.8 2v32.1l.1 7-21.6-.1V22.1c-17.9 6.2-20.7 16.5-20.7 16.5 3.7-4.9 6.4-4.4 6.4-4.4l.2 20.2H88l.7-30.9c11 8.5 18 21.7 18 36.5 0 25.1-20.1 45.5-45.2 46.3v13.1C93.9 118.6 120 92.3 120 60c0-28.4-20.2-52.2-47.2-58z"/></svg>