<svg xmlns="http://www.w3.org/2000/svg" viewBox="0 0 336 336"><g fill="#fff"><path d="M312 123.2V122l-18.4-82.8c-4-18.4-20.4-31.6-39.2-31.6H77.6c-18.8 0-35.2 13.2-39.2 31.6L20 122.4c-.4 1.2-.4 2 0 3.2-12 6.8-20 20-20 34.8v80c0 12.4 6.8 22.8 16.4 30 0 .4-.4 1.2-.4 2v28c0 15.6 12.4 28 28 28h8c15.6 0 28-12.4 28-28v-20h176v20c0 15.6 12.4 28 28 28h8c15.6 0 28-12.4 28-28v-28c9.6-7.2 16-18.8 16-32V160c0-16.4-10-30.4-24-36.8zM54.4 42.8C56.8 32 66.4 24 77.6 24h176.8c11.2 0 21.2 8 23.2 18.8l17.2 77.2H37.2l17.2-77.2zM64 300c0 6.8-5.2 12-12 12h-8c-6.8 0-12-5.2-12-12v-22c4 1.2 8 2 12 2h20v20zm240 0c0 6.8-5.2 12-12 12h-8c-6.8 0-12-5.2-12-12v-20h24c2.8 0 5.6-.4 8-.8V300zm16-60c0 13.2-10.8 24-24 24H44c-12.8 0-28-10.8-28-24v-80c0-13.2 10.8-24 24-24h256c13.2 0 24 10.8 24 24v80z"/><path d="M60 172c-13.2 0-24 10.8-24 24s10.8 24 24 24 24-10.8 24-24-10.8-24-24-24zm0 32c-4.4 0-8-3.6-8-8s3.6-8 8-8 8 3.6 8 8-3.6 8-8 8zm216-32c-13.2 0-24 10.8-24 24s10.8 24 24 24 24-10.8 24-24-10.8-24-24-24zm0 32c-4.4 0-8-3.6-8-8s3.6-8 8-8 8 3.6 8 8-3.6 8-8 8z"/></g></svg>